# xmcd
#
# Track frame offsets:
# 150
# 20476
# 56246
# 67965
# 108707
# 134007
# 166432
# 212817
# 239414
#
# Disc length: 3607 seconds
#
#
# Revision: 0
# Processed by: cddbd v1.5PL3 Copyright (c) Steve Scherf et al.
# Submitted via: FreeRIP 2.70 
#
DISCID=8a0e1509
DTITLE=David and Roselyn - Hans Hartmann - Dirty Old Men
DYEAR=1997
DGENRE=Blues
TTITLE0=Sweet Georgia Brown
TTITLE1=Frankie And Johnny
TTITLE2=Dirty Old Men
TTITLE3=Travlin' Woman
TTITLE4=Black Girl
TTITLE5=Makin' Whoopie
TTITLE6=Betty And Dupree
TTITLE7=Stagger Lee
TTITLE8=You Could Have Had Me, Baby Why Don't You Do It Right
EXTD=
EXTT0=
EXTT1=
EXTT2=
EXTT3=
EXTT4=
EXTT5=
EXTT6=
EXTT7=
EXTT8=
PLAYORDER=
